<svg aria-hidden="true" style="position: absolute; width: 0; height: 0; overflow: hidden;" version="1.1" xmlns="http://www.w3.org/2000/svg" xmlns:xlink="http://www.w3.org/1999/xlink">
<defs>
<symbol id="edit" viewBox="0 0 32 32">
<title>edit</title>
<path d="M19.898 5.392l6.51 6.509-16.477 16.477-6.506-6.509 16.474-16.477zM31.347 3.822l-2.903-2.903c-1.122-1.122-2.944-1.122-4.069 0l-2.781 2.781 6.51 6.51 3.244-3.244c0.87-0.87 0.87-2.274 0-3.144zM0.018 31.019c-0.118 0.533 0.363 1.011 0.896 0.881l7.254-1.759-6.506-6.509-1.644 7.387z"></path>
</symbol>
<symbol id="facebook" viewBox="0 0 32 32">
<title>facebook</title>
<path fill="#485a96" style="fill: var(--color1, #485a96)" d="M30.234 32c0.975 0 1.766-0.791 1.766-1.766v-28.468c0-0.976-0.791-1.766-1.766-1.766h-28.468c-0.976 0-1.766 0.791-1.766 1.766v28.468c0 0.975 0.79 1.766 1.766 1.766h28.468z"></path>
<path fill="#fff" style="fill: var(--color2, #fff)" d="M22.079 32v-12.392h4.159l0.623-4.829h-4.782v-3.083c0-1.398 0.388-2.351 2.393-2.351l2.557-0.001v-4.319c-0.442-0.059-1.96-0.19-3.726-0.19-3.687 0-6.212 2.251-6.212 6.384v3.562h-4.17v4.829h4.17v12.392h4.987z"></path>
</symbol>
<symbol id="github" viewBox="0 0 32 32">
<title>github</title>
<path d="M16 0.667c-8.84 0-16 7.040-16 15.723 0 6.948 4.584 12.84 10.94 14.917 0.8 0.148 1.093-0.339 1.093-0.756 0-0.373-0.013-1.363-0.020-2.673-4.451 0.948-5.389-2.109-5.389-2.109-0.728-1.815-1.78-2.3-1.78-2.3-1.449-0.975 0.112-0.955 0.112-0.955 1.607 0.109 2.451 1.62 2.451 1.62 1.427 2.404 3.745 1.709 4.66 1.308 0.144-1.017 0.556-1.709 1.013-2.103-3.553-0.393-7.288-1.745-7.288-7.769 0-1.716 0.62-3.119 1.647-4.219-0.18-0.397-0.72-1.996 0.14-4.161 0 0 1.34-0.421 4.4 1.612 1.28-0.349 2.64-0.523 4-0.531 1.36 0.008 2.72 0.181 4 0.531 3.040-2.033 4.38-1.612 4.38-1.612 0.86 2.165 0.32 3.764 0.16 4.161 1.020 1.1 1.64 2.503 1.64 4.219 0 6.040-3.74 7.369-7.3 7.756 0.56 0.472 1.080 1.436 1.080 2.909 0 2.104-0.020 3.795-0.020 4.305 0 0.412 0.28 0.904 1.1 0.747 6.401-2.064 10.981-7.96 10.981-14.897 0-8.683-7.164-15.723-16-15.723z"></path>
</symbol>
<symbol id="home" viewBox="0 0 32 32">
<title>home</title>
<path d="M25.375 11.206v-8.013h-3.75v4.279l-5.625-5.602-16 15.934v1.952h3.813v10.375h9.979v-6.25h4.375v6.25h10.021v-10.375h3.813v-1.952z"></path>
</symbol>
<symbol id="linkedin" viewBox="0 0 32 32">
<title>linkedin</title>
<path fill="#069" style="fill: var(--color3, #069)" d="M0 2.292c0-1.265 1.059-2.292 2.365-2.292h27.27c1.306 0 2.365 1.027 2.365 2.292v27.416c0 1.266-1.059 2.292-2.365 2.292h-27.27c-1.306 0-2.365-1.026-2.365-2.291v-27.417z"></path>
<path fill="#fff" style="fill: var(--color2, #fff)" d="M9.725 26.78v-14.406h-4.788v14.406h4.789zM7.331 10.407c1.67 0 2.709-1.106 2.709-2.489-0.031-1.414-1.039-2.489-2.677-2.489-1.639 0-2.709 1.075-2.709 2.489 0 1.382 1.039 2.489 2.646 2.489h0.031zM12.375 26.78h4.788v-8.044c0-0.43 0.031-0.861 0.158-1.168 0.346-0.861 1.134-1.752 2.457-1.752 1.732 0 2.426 1.321 2.426 3.258v7.706h4.788v-8.26c0-4.425-2.362-6.484-5.512-6.484-2.583 0-3.717 1.444-4.348 2.427h0.032v-2.089h-4.788c0.063 1.351-0 14.406-0 14.406z"></path>
</symbol>
<symbol id="star" viewBox="0 0 32 32">
<title>star</title>
<path d="M31.916 12.274c-0.211-0.648-0.785-1.107-1.463-1.168l-9.237-0.839-3.651-8.547c-0.27-0.628-0.883-1.033-1.565-1.033s-1.296 0.405-1.564 1.033l-3.651 8.547-9.239 0.839c-0.677 0.063-1.251 0.521-1.463 1.168-0.211 0.648-0.016 1.359 0.496 1.808l6.983 6.123-2.059 9.068c-0.151 0.667 0.108 1.356 0.661 1.756 0.297 0.216 0.647 0.324 0.997 0.324 0.301 0 0.603-0.080 0.872-0.241l7.965-4.763 7.964 4.763c0.584 0.349 1.319 0.317 1.871-0.083 0.553-0.4 0.812-1.089 0.661-1.756l-2.059-9.068 6.983-6.123c0.512-0.449 0.707-1.158 0.496-1.808z"></path>
</symbol>
<symbol id="twitter" viewBox="0 0 32 32">
<title>twitter</title>
<path fill="#2daae1" style="fill: var(--color4, #2daae1)" d="M32 16c0 8.837-7.163 16-16 16s-16-7.163-16-16c0-8.837 7.163-16 16-16s16 7.163 16 16z"></path>
<path fill="#fff" style="fill: var(--color2, #fff)" d="M26.259 9.635c-0.755 0.335-1.565 0.561-2.418 0.663 0.87-0.521 1.536-1.346 1.851-2.329-0.77 0.465-1.665 0.819-2.62 1.012l-0.054 0.009c-0.767-0.818-1.862-1.329-3.072-1.329-2.324 0-4.208 1.884-4.208 4.209 0 0.329 0.037 0.651 0.108 0.959-3.498-0.176-6.6-1.851-8.676-4.398-0.362 0.622-0.57 1.345-0.57 2.116 0 1.46 0.743 2.748 1.872 3.503-0.703-0.022-1.357-0.215-1.928-0.537l0.021 0.011v0.053c0 2.040 1.451 3.74 3.376 4.127-0.354 0.097-0.725 0.148-1.109 0.148-0.272 0-0.535-0.026-0.792-0.074 0.536 1.672 2.090 2.888 3.931 2.923-1.441 1.129-3.256 1.802-5.227 1.802-0.34 0-0.675-0.020-1.005-0.060 1.863 1.195 4.075 1.892 6.452 1.892 7.742 0 11.976-6.414 11.976-11.976 0-0.183-0.004-0.364-0.013-0.544 0.828-0.603 1.526-1.326 2.084-2.151l0.019-0.030z"></path>
</symbol>
</defs>
</svg>
