<svg height="429pt" viewBox="0 -22 429 429" width="429pt" xmlns="http://www.w3.org/2000/svg"><path d="m365.199219 49.800781c41.101562 32.699219 63.800781 76.300781 63.800781 122.898438 0 46.601562-22.699219 90.300781-63.800781 122.902343-40.398438 32.097657-93.898438 49.699219-150.699219 49.699219-15.550781-.011719-31.074219-1.347656-46.398438-4l-104.902343 44.300781 3.402343-87.902343c-.902343-.699219-1.902343-1.398438-2.800781-2.199219-41.101562-32.699219-63.800781-76.300781-63.800781-122.898438 0-46.601562 22.601562-90.300781 63.800781-122.902343 40.398438-32.097657 93.898438-49.699219 150.699219-49.699219s110.300781 17.699219 150.699219 49.800781zm0 0" fill="#00acea"/><g fill="#00efd1"><path d="m354.601562 172.699219c0 17.175781-13.925781 31.101562-31.101562 31.101562s-31.101562-13.925781-31.101562-31.101562 13.925781-31.097657 31.101562-31.097657 31.101562 13.921876 31.101562 31.097657zm0 0"/><path d="m245.601562 172.699219c0 17.175781-13.925781 31.101562-31.101562 31.101562s-31.101562-13.925781-31.101562-31.101562 13.925781-31.097657 31.101562-31.097657 31.101562 13.921876 31.101562 31.097657zm0 0"/><path d="m108.566406 141.75c17.089844 1.695312 29.574219 16.921875 27.882813 34.015625-1.691407 17.089844-16.921875 29.574219-34.011719 27.882813-17.09375-1.691407-29.578125-16.921876-27.886719-34.011719 1.695313-17.09375 16.921875-29.578125 34.015625-27.886719zm0 0"/></g></svg>