<svg id="Layer_1" enable-background="new 0 0 511.334 511.334" height="512" viewBox="0 0 511.334 511.334" width="512" xmlns="http://www.w3.org/2000/svg"><path d="m330.334 96h-11v-32.333c0-35.106-28.561-63.667-63.667-63.667s-63.667 28.561-63.667 63.667v32.333h-11c-11.598 0-21 9.402-21 21v74.667c0 52.751 42.916 95.667 95.667 95.667s95.667-42.916 95.667-95.667v-74.667c0-11.598-9.403-21-21-21zm-96.334-32.333c0-11.947 9.72-21.667 21.667-21.667s21.667 9.72 21.667 21.667v32.333h-43.334z" fill="#ea8692"/><path d="m415.667 320h-320c-52.751 0-95.667 42.916-95.667 95.667s42.916 95.667 95.667 95.667h320c52.751 0 95.667-42.916 95.667-95.667s-42.916-95.667-95.667-95.667z" fill="#ffdfba"/><path d="m330.334 96h-149.334c-11.598 0-21 9.402-21 21v74.667c0 52.751 42.916 95.667 95.667 95.667s95.667-42.916 95.667-95.667v-74.667c0-11.598-9.403-21-21-21z" fill="#fe929f"/><g fill="#a07765"><circle cx="127.667" cy="415.667" r="21.333"/><circle cx="213" cy="415.667" r="21.333"/><circle cx="298.333" cy="415.667" r="21.333"/><circle cx="383.667" cy="415.667" r="21.333"/></g></svg>