<svg fill="none" height="32" viewBox="0 0 123 32" width="123" xmlns="http://www.w3.org/2000/svg"><path d="m38.0921 31.656c-.3413 0-.6163-.1043-.8249-.3129-.1896-.1896-.2844-.4551-.2844-.7964v-13.4258c.0189-1.4791.3697-2.8065 1.0524-3.9822.7016-1.1947 1.6403-2.1334 2.816-2.816 1.1947-.6827 2.5316-1.02404 4.0107-1.02404 1.517 0 2.8729.35082 4.0675 1.05244 1.1947.6827 2.1334 1.6213 2.816 2.816.7017 1.1947 1.0525 2.5505 1.0525 4.0676 0 1.498-.3414 2.8444-1.024 4.0391-.6637 1.1946-1.5739 2.1428-2.7307 2.8444-1.1567.6827-2.4652 1.024-3.9253 1.024-1.2705 0-2.4273-.2655-3.4702-.7964-1.024-.5499-1.8489-1.2705-2.4747-2.1618v8.3627c0 .3413-.1043.6068-.3129.7964-.1896.2086-.4456.3129-.768.3129zm6.7698-8.5049c1.0998 0 2.0859-.256 2.9582-.768s1.555-1.2136 2.048-2.1049c.512-.9102.768-1.9247.768-3.0435 0-1.1378-.256-2.1523-.768-3.0436-.493-.8912-1.1757-1.5929-2.048-2.1049-.8723-.5309-1.8584-.7964-2.9582-.7964-1.0809 0-2.0575.2655-2.9298.7964-.8723.512-1.555 1.2137-2.048 2.1049-.493.8913-.7396 1.9058-.7396 3.0436 0 1.1188.2466 2.1333.7396 3.0435.493.8913 1.1757 1.5929 2.048 2.1049s1.8489.768 2.9298.768zm25.1458 1.8489c-.3224 0-.5879-.1043-.7965-.3129s-.3129-.4646-.3129-.768v-7.3955c0-1.1757-.2275-2.1429-.6826-2.9014-.4362-.7585-1.043-1.3274-1.8205-1.7066-.7585-.3793-1.6213-.5689-2.5884-.5689-.9292 0-1.7731.1801-2.5316.5404-.7395.3603-1.3274.8533-1.7635 1.4791-.4362.6258-.6543 1.3369-.6543 2.1334h-1.5644c.0379-1.1947.3603-2.2566.9671-3.1858.6068-.9482 1.4127-1.6877 2.4178-2.2187 1.005-.54992 2.1238-.82488 3.3564-.82488 1.3464 0 2.5505.28444 3.6125.85338 1.0619.5499 1.8963 1.3653 2.5031 2.4462.6258 1.0809.9386 2.3988.9386 3.9538v7.3955c0 .3034-.1043.5594-.3128.768-.2086.2086-.4646.3129-.768.3129zm-12.2312 0c-.3413 0-.6163-.0948-.8248-.2844-.1897-.2086-.2845-.4741-.2845-.7965v-13.3689c0-.3413.0948-.60679.2845-.79642.2085-.2086.4835-.31289.8248-.31289.3224 0 .5784.10429.768.31289.2086.18963.3129.45512.3129.79642v13.3689c0 .3224-.1043.5879-.3129.7965-.1896.1896-.4456.2844-.768.2844zm0-6.3431c-.3413 0-.6163-.1043-.8248-.3129-.1897-.2086-.2845-.4741-.2845-.7964v-13.65338c0-.34133.0948-.60682.2845-.79645.2085-.20859.4835-.31288.8248-.31288.3224 0 .5784.10429.768.31288.2086.18963.3129.45512.3129.79645v13.65338c0 .3223-.1043.5878-.3129.7964-.1896.2086-.4456.3129-.768.3129zm24.7967 6.4853c-1.517 0-2.8729-.3413-4.0675-1.024-1.1947-.6826-2.1334-1.6213-2.816-2.816-.6827-1.1946-1.024-2.5505-1.024-4.0675 0-1.536.3413-2.9014 1.024-4.096.6826-1.1947 1.6213-2.1334 2.816-2.816 1.1946-.6827 2.5505-1.02404 4.0675-1.02404 1.5171 0 2.8634.34134 4.0391 1.02404 1.1947.6826 2.1334 1.6213 2.816 2.816.6827 1.1946 1.0335 2.56 1.0525 4.096 0 1.517-.3508 2.8729-1.0525 4.0675-.6826 1.1947-1.6213 2.1334-2.816 2.816-1.1757.6827-2.522 1.024-4.0391 1.024zm0-1.9911c1.0999 0 2.0859-.256 2.9582-.768s1.555-1.2136 2.048-2.1049c.4931-.8912.7396-1.9058.7396-3.0435 0-1.1378-.2465-2.1523-.7396-3.0436-.493-.9102-1.1757-1.6213-2.048-2.1333s-1.8583-.768-2.9582-.768c-1.0998 0-2.0859.256-2.9582.768s-1.5645 1.2231-2.0765 2.1333c-.493.8913-.7395 1.9058-.7395 3.0436 0 1.1377.2465 2.1523.7395 3.0435.512.8913 1.2042 1.5929 2.0765 2.1049s1.8584.768 2.9582.768zm17.8278 1.8489c-1.005 0-1.9058-.237-2.7022-.7111-.7775-.4741-1.3938-1.1188-1.8489-1.9342-.4551-.8344-.6827-1.7826-.6827-2.8445v-13.90931c0-.32237.0948-.58786.2845-.79645.2086-.20859.474-.31289.7964-.31289s.5879.1043.7964.31289c.2086.20859.3129.47408.3129.79645v13.90931c0 .9671.2845 1.7636.8534 2.3894.5689.6068 1.2989.9102 2.1902.9102h.768c.303 0 .55.1043.74.3129.189.2086.284.474.284.7964s-.114.5879-.341.7965c-.228.1896-.512.2844-.854.2844zm-7.0827-13.0844c-.2844 0-.5215-.0854-.7111-.256-.1896-.1897-.2844-.4172-.2844-.6827 0-.2845.0948-.512.2844-.6827.1896-.1896.4267-.2844.7111-.2844h7.2537c.284 0 .521.0948.711.2844.189.1707.284.3982.284.6827 0 .2655-.095.493-.284.6827-.19.1706-.427.256-.711.256zm19.0957 13.2266c-1.517 0-2.873-.3413-4.067-1.024-1.195-.6826-2.134-1.6213-2.816-2.816-.683-1.1946-1.024-2.5505-1.024-4.0675 0-1.536.341-2.9014 1.024-4.096.682-1.1947 1.621-2.1334 2.816-2.816 1.194-.6827 2.55-1.02404 4.067-1.02404s2.864.34134 4.039 1.02404c1.195.6826 2.134 1.6213 2.816 2.816.683 1.1946 1.034 2.56 1.053 4.096 0 1.517-.351 2.8729-1.053 4.0675-.682 1.1947-1.621 2.1334-2.816 2.816-1.175.6827-2.522 1.024-4.039 1.024zm0-1.9911c1.1 0 2.086-.256 2.959-.768.872-.512 1.555-1.2136 2.048-2.1049.493-.8912.739-1.9058.739-3.0435 0-1.1378-.246-2.1523-.739-3.0436-.493-.9102-1.176-1.6213-2.048-2.1333-.873-.512-1.859-.768-2.959-.768s-2.086.256-2.958.768-1.564 1.2231-2.076 2.1333c-.493.8913-.74 1.9058-.74 3.0436 0 1.1377.247 2.1523.74 3.0435.512.8913 1.204 1.5929 2.076 2.1049s1.858.768 2.958.768z" fill="#000"/><g clip-rule="evenodd" fill-rule="evenodd"><path d="m15.8464 2.96296h-15.84639142l6.67215142 6.67215h15.84634zm-9.17425 6.67216v15.84638l-6.67215-6.6722v-15.84633z" fill="#ccc"/><path d="m6.67218 25.4815h15.84632l-6.6721-6.6722h-15.84637711zm9.17422-6.6722v-15.84634l6.6722 6.67215v15.84639z" fill="#000"/></g></svg>